PathFileType	4	(x/y/z)	S01_M20_T14.trc
DataRate	CameraRate	NumFrames	NumMarkers	Units	OrigDataRate	OrigDataStartFrame	OrigNumFrames
240	240	7	51	mm	240	122	485
Frame#	Time	Sternum			R.Acromium			L.Acromium			Top.Head			R.ASIS			L.ASIS			R.PSIS			L.PSIS			R.Great.Tro			L.Great.Tro			R.Iliac.Crest			L.Iliac.Crest			V.Sacral			R.Thigh.Upper.Post			R.Thigh.Lower.Ant			R.Thigh.Lower.Post			R.Thigh.Upper.Ant			R.Knee.Lat			R.Knee.Med			R.Shank.Upper.Post			R.Shank.Lower.Ant			R.Shank.Lower.Post			R.Shank.Upper.Ant			R.Ankle.Lat			R.Ankle.Med			R.Heel.Upper			R.Heel.Med			R.Heel.Lat			R.Toe.Lat			R.Toe.Med			R.Toe.Tip			L.Thigh.Upper.Post			L.Thigh.Lower.Ant			L.Thigh.Lower.Post			L.Thigh.Upper.Ant			L.Knee.Lat			L.Knee.Med			L.Shank.Upper.Post			L.Shank.Lower.Ant			L.Shank.Lower.Post			L.Shank.Upper.Ant			L.Ankle.Lat			L.Ankle.Med			L.Heel.Upper			L.Heel.Med			L.Heel.Lat			L.Toe.Lat			L.Toe.Med			L.Toe.Tip			Cervical.Spine			Back			
		X1	Y1	Z1	X2	Y2	Z2	X3	Y3	Z3	X4	Y4	Z4	X5	Y5	Z5	X6	Y6	Z6	X7	Y7	Z7	X8	Y8	Z8	X9	Y9	Z9	X10	Y10	Z10	X11	Y11	Z11	X12	Y12	Z12	X13	Y13	Z13	X14	Y14	Z14	X15	Y15	Z15	X16	Y16	Z16	X17	Y17	Z17	X18	Y18	Z18	X19	Y19	Z19	X20	Y20	Z20	X21	Y21	Z21	X22	Y22	Z22	X23	Y23	Z23	X24	Y24	Z24	X25	Y25	Z25	X26	Y26	Z26	X27	Y27	Z27	X28	Y28	Z28	X29	Y29	Z29	X30	Y30	Z30	X31	Y31	Z31	X32	Y32	Z32	X33	Y33	Z33	X34	Y34	Z34	X35	Y35	Z35	X36	Y36	Z36	X37	Y37	Z37	X38	Y38	Z38	X39	Y39	Z39	X40	Y40	Z40	X41	Y41	Z41	X42	Y42	Z42	X43	Y43	Z43	X44	Y44	Z44	X45	Y45	Z45	X46	Y46	Z46	X47	Y47	Z47	X48	Y48	Z48	X49	Y49	Z49	X50	Y50	Z50	X51	Y51	Z51	

122	0.50417	-701.71	1233.9	257.4	-807.57	1485.3	436.31	-813.7	1513	110.02	-689.3	1790.1	274.62	-754.94	987.71	400.42	-762.32	985.68	130.99	-996.29	1033.7	319.32	-1003.7	1040.9	217.21	-825.26	940.42	487.01	-885.92	950.6	58.862	-843.09	1082.5	471.7	-873.7	1072.6	63.267	-1015.7	1002.8	264.51	-717.41	655.29	459.1	-626.87	620.34	423.02	-679.4	576.88	435.52	-662.26	701.2	444.94	-630.93	535.32	430.98	-639.44	530.91	285.15	-629.22	368.32	456.09	-545.62	309.69	412.89	-609.89	300.48	446.16	-569.01	377.91	428.74	-536.96	108.91	415.34	-511.37	123.44	321.33	-588.54	54.067	357.57	-561.36	32.907	329.5	-565.73	32.116	394.37	-391.69	100.88	450.73	-365.03	117.53	327.72	-319.13	165.7	381.31	-999.59	697.98	88.782	-938.32	605.1	84.143	-1015.7	609.4	104.38	-928.94	697.87	65.805	-1001.1	513.27	90.785	-967.47	504.33	231.62	-1109.7	404.08	79.254	-1088.4	297.51	102.5	-1140.7	332.17	84.072	-1055.7	368.3	91.824	-1239.4	136.26	127.32	-1209	141.01	223.95	-1317.8	120.27	174.64	-1309.7	93.037	207.31	-1314.1	93.256	145.36	-1111.1	40.516	108.05	-1084.8	44.282	229.32	-1020.7	46.045	178.48	-883.95	1563.8	277.96	-1004.6	1256.6	281.13
123	0.50833	-695.63	1233.7	258.1	-801.51	1484.4	437.83	-808.24	1512.8	111.5	-683.66	1789.9	276.33	-748.43	987.31	400.6	-756.42	985.27	131.24	-990.02	1033.3	320.25	-997.63	1040.4	218.14	-818.22	940	487.38	-880.18	950.06	59.449	-836.28	1081.9	472.54	-868.06	1072.3	63.9	-1009.5	1002.4	265.52	-711.84	654.69	459.19	-621.41	619.39	423.17	-674.14	576.14	435.59	-656.48	700.37	445.2	-625.63	534.47	431.02	-634.7	530.11	285.24	-624.79	367.52	456.02	-541.68	308.3	412.69	-605.95	299.54	446.09	-564.56	376.69	428.56	-534.65	107.8	415.34	-508.93	121.7	321.22	-587.33	54.413	357.62	-560.65	32.632	329.51	-564.9	32.029	394.39	-389.64	97.458	450.53	-362.82	113.71	327.48	-316.01	160.96	381.06	-994.04	697.56	89.372	-932.67	604.68	84.194	-1010	608.92	104.86	-923.46	697.53	66.094	-995.53	512.89	90.944	-961.22	503.6	231.58	-1105	404.9	79.377	-1084.9	298.08	102.43	-1136.8	333.34	84.178	-1051.3	368.57	91.733	-1237.7	138.31	127.21	-1207.1	142.77	223.78	-1316.2	123.51	174.6	-1308.4	96.275	207.33	-1312.9	96.348	145.4	-1110.9	40.639	108.04	-1084.6	44.36	229.37	-1020.5	45.739	178.47	-878.19	1563.3	279.73	-998.54	1256	282.39
124	0.5125	-689.54	1233.5	258.81	-795.43	1483.7	439.36	-802.77	1512.8	113	-678.01	1789.7	278.04	-741.95	987	400.79	-750.49	984.94	131.53	-983.76	1033	321.17	-991.53	1039.9	219.06	-811.24	939.69	487.77	-874.36	949.56	60.047	-829.46	1081.3	473.38	-862.35	1072.1	64.546	-1003.3	1001.9	266.51	-706.29	654.22	459.32	-615.95	618.59	423.38	-668.88	575.54	435.7	-650.71	699.69	445.53	-620.31	533.76	431.1	-629.93	529.47	285.37	-620.36	366.86	455.99	-537.73	307.04	412.54	-602.01	298.73	446.05	-560.11	375.6	428.44	-532.38	106.82	415.35	-506.51	120.12	321.13	-586.15	54.882	357.67	-559.96	32.5	329.52	-564.12	32.062	394.39	-387.66	94.102	450.4	-360.64	109.97	327.32	-312.94	156.26	380.92	-988.34	697.13	89.968	-926.86	604.26	84.247	-1004.1	608.42	105.33	-917.85	697.19	66.396	-989.76	512.51	91.093	-954.79	502.86	231.53	-1100.2	405.77	79.497	-1081.2	298.69	102.35	-1132.8	334.57	84.284	-1046.8	368.86	91.642	-1235.8	140.46	127.1	-1204.9	144.6	223.61	-1314.4	126.91	174.56	-1306.9	99.686	207.37	-1311.6	99.618	145.46	-1110.6	40.779	108.03	-1084.3	44.451	229.42	-1020.3	45.419	178.45	-872.42	1563	281.52	-992.48	1255.5	283.66
125	0.51667	-683.42	1233.3	259.52	-789.32	1483	440.9	-797.3	1512.8	114.5	-672.33	1789.5	279.76	-735.51	986.78	400.99	-744.51	984.68	131.86	-977.51	1032.9	322.06	-985.4	1039.5	219.94	-804.34	939.53	488.18	-868.46	949.09	60.655	-822.62	1080.9	474.22	-856.55	1072	65.205	-997	1001.6	267.48	-700.74	653.89	459.5	-610.47	617.97	423.64	-663.58	575.1	435.86	-644.97	699.16	445.92	-614.97	533.2	431.22	-625.13	529	285.54	-615.91	366.32	456	-533.79	305.91	412.45	-598.06	298.06	446.06	-555.64	374.63	428.36	-530.16	105.95	415.39	-504.11	118.69	321.09	-584.99	55.452	357.71	-559.29	32.494	329.52	-563.38	32.196	394.39	-385.77	90.824	450.32	-358.52	106.32	327.23	-309.92	151.61	380.86	-982.49	696.68	90.566	-920.88	603.86	84.303	-998.04	607.91	105.8	-912.09	696.87	66.714	-983.81	512.13	91.229	-948.16	502.12	231.47	-1095.1	406.67	79.612	-1077.4	299.36	102.25	-1128.6	335.86	84.391	-1042.2	369.18	91.554	-1233.7	142.71	126.98	-1202.6	146.5	223.44	-1312.4	130.49	174.54	-1305.3	103.28	207.41	-1310.1	103.07	145.53	-1110.4	40.938	108.02	-1084.1	44.557	229.48	-1020.1	45.082	178.44	-866.63	1562.7	283.32	-986.42	1255.1	284.95
126	0.52083	-677.29	1233.3	260.24	-783.21	1482.4	442.44	-791.81	1512.9	116.01	-666.64	1789.5	281.47	-729.11	986.67	401.21	-738.5	984.49	132.22	-971.27	1032.9	322.92	-979.24	1039.2	220.78	-797.54	939.51	488.63	-862.48	948.65	61.271	-815.78	1080.6	475.06	-850.67	1071.9	65.875	-990.73	1001.4	268.42	-695.17	653.71	459.73	-604.96	617.53	423.96	-658.23	574.82	436.07	-639.22	698.81	446.36	-609.59	532.8	431.39	-620.26	528.7	285.77	-611.45	365.93	456.06	-529.85	304.92	412.41	-594.12	297.53	446.12	-551.17	373.79	428.34	-528.01	105.2	415.46	-501.78	117.41	321.09	-583.87	56.098	357.75	-558.65	32.596	329.53	-562.68	32.412	394.38	-383.96	87.637	450.3	-356.46	102.79	327.19	-307	147.05	380.88	-976.47	696.21	91.165	-914.73	603.47	84.36	-991.82	607.37	106.26	-906.17	696.55	67.046	-977.65	511.74	91.349	-941.34	501.37	231.38	-1089.9	407.61	79.72	-1073.4	300.07	102.14	-1124.3	337.2	84.498	-1037.4	369.51	91.468	-1231.5	145.05	126.86	-1200.1	148.49	223.27	-1310.3	134.23	174.53	-1303.5	107.05	207.46	-1308.4	106.71	145.62	-1110.1	41.121	108.01	-1083.9	44.682	229.54	-1019.9	44.725	178.41	-860.82	1562.5	285.13	-980.34	1254.8	286.23
127	0.525	-671.16	1233.4	260.96	-777.08	1481.9	443.98	-786.31	1513.1	117.52	-660.93	1789.5	283.19	-722.75	986.67	401.45	-732.45	984.39	132.64	-965.05	1033	323.74	-973.06	1039	221.58	-790.86	939.65	489.1	-856.43	948.25	61.893	-808.97	1080.5	475.9	-844.69	1072	66.56	-984.47	1001.3	269.32	-689.57	653.68	460.02	-599.42	617.28	424.33	-652.82	574.71	436.33	-633.46	698.63	446.85	-604.16	532.54	431.6	-615.3	528.59	286.05	-606.99	365.67	456.18	-525.92	304.04	412.43	-590.19	297.14	446.23	-546.69	373.07	428.38	-525.94	104.55	415.55	-499.51	116.29	321.13	-582.78	56.801	357.8	-558.02	32.792	329.54	-562.03	32.694	394.38	-382.24	84.553	450.31	-354.48	99.377	327.21	-304.19	142.59	380.96	-970.28	695.71	91.759	-908.39	603.08	84.418	-985.41	606.8	106.7	-900.08	696.24	67.392	-971.28	511.34	91.447	-934.31	500.61	231.27	-1084.5	408.59	79.819	-1069.3	300.84	102.02	-1119.7	338.6	84.603	-1032.4	369.86	91.38	-1229	147.49	126.74	-1197.5	150.54	223.09	-1307.9	138.15	174.53	-1301.6	111.01	207.53	-1306.6	110.55	145.73	-1109.8	41.331	108	-1083.6	44.826	229.6	-1019.7	44.347	178.39	-855	1562.4	286.94	-974.26	1254.6	287.52
128	0.52917	-665.02	1233.6	261.69	-770.94	1481.4	445.51	-780.78	1513.4	119.04	-655.22	1789.6	284.92	-716.45	986.78	401.72	-726.36	984.36	133.1	-958.85	1033.2	324.51	-966.86	1038.9	222.33	-784.3	939.94	489.6	-850.29	947.87	62.521	-802.19	1080.4	476.73	-838.61	1072.2	67.257	-978.21	1001.2	270.17	-683.93	653.81	460.36	-593.82	617.23	424.74	-647.34	574.78	436.65	-627.69	698.62	447.39	-598.68	532.43	431.86	-610.25	528.65	286.38	-602.53	365.53	456.36	-522.02	303.28	412.5	-586.27	296.87	446.41	-542.21	372.47	428.48	-523.95	103.99	415.67	-497.33	115.32	321.21	-581.73	57.542	357.85	-557.42	33.065	329.56	-561.42	33.026	394.39	-380.62	81.578	450.37	-352.6	96.107	327.28	-301.49	138.27	381.1	-963.92	695.18	92.344	-901.86	602.7	84.472	-978.82	606.2	107.13	-893.83	695.94	67.75	-964.69	510.92	91.518	-927.07	499.83	231.14	-1078.9	409.6	79.905	-1064.9	301.66	101.87	-1115	340.05	84.705	-1027.3	370.23	91.289	-1226.3	150.03	126.61	-1194.6	152.67	222.92	-1305.2	142.25	174.54	-1299.4	115.17	207.62	-1304.6	114.58	145.86	-1109.5	41.573	108	-1083.4	44.996	229.66	-1019.4	43.945	178.36	-849.17	1562.4	288.75	-968.18	1254.4	288.8
